<?xml version="1.0" encoding="UTF-8"?>
<!DOCTYPE svg PUBLIC "-//W3C//DTD SVG 1.1//EN" "http://www.w3.org/Graphics/SVG/1.1/DTD/svg11.dtd">
<svg xmlns="http://www.w3.org/2000/svg" version="1.1" width="128px" height="128px" style="shape-rendering:geometricPrecision; text-rendering:geometricPrecision; image-rendering:optimizeQuality; fill-rule:evenodd; clip-rule:evenodd" xmlns:xlink="http://www.w3.org/1999/xlink">
<g><path style="opacity:0.997" fill="#6aa4d3" d="M 31.5,2.5 C 29.7261,5.92646 28.7261,9.59313 28.5,13.5C 24.086,15.1553 23.4193,17.8219 26.5,21.5C 26.5,23.5 26.5,25.5 26.5,27.5C 25.0532,28.1342 24.3866,29.3009 24.5,31C 24.3866,32.6991 25.0532,33.8658 26.5,34.5C 26.5321,38.9829 27.5321,42.9829 29.5,46.5C 28.5,47.1667 27.5,47.8333 26.5,48.5C 19.0226,54.2424 16.0226,61.909 17.5,71.5C 11.5,71.5 5.5,71.5 -0.5,71.5C -0.5,51.5 -0.5,31.5 -0.5,11.5C 1.78821,7.51058 5.12154,4.67725 9.5,3C 16.8258,2.50034 24.1591,2.33368 31.5,2.5 Z"/></g>
<g><path style="opacity:0.994" fill="#76b7eb" d="M 31.5,2.5 C 60.1686,2.33336 88.8353,2.50002 117.5,3C 121.878,4.67725 125.212,7.51058 127.5,11.5C 127.5,31.5 127.5,51.5 127.5,71.5C 121.5,71.5 115.5,71.5 109.5,71.5C 110.877,62.4588 108.21,54.9588 101.5,49C 90.2451,44.2087 82.7451,47.7087 79,59.5C 78.5012,63.4862 78.3345,67.4862 78.5,71.5C 68.5,71.5 58.5,71.5 48.5,71.5C 49.2487,64.7794 48.0821,58.446 45,52.5C 40.8978,47.8531 35.7311,45.8531 29.5,46.5C 27.5321,42.9829 26.5321,38.9829 26.5,34.5C 31.3276,34.6148 32.6609,32.4481 30.5,28C 29.2068,27.51 27.8734,27.3433 26.5,27.5C 26.5,25.5 26.5,23.5 26.5,21.5C 29.244,21.7997 30.9106,20.633 31.5,18C 31.4779,15.8171 30.4779,14.3171 28.5,13.5C 28.7261,9.59313 29.7261,5.92646 31.5,2.5 Z"/></g>
<g><path style="opacity:1" fill="#b2e5fe" d="M 42.5,11.5 C 56.1707,11.3334 69.8374,11.5001 83.5,12C 85.3333,12.5 86.5,13.6667 87,15.5C 87.6667,21.1667 87.6667,26.8333 87,32.5C 86.5348,33.9308 85.7014,35.0975 84.5,36C 70.5,36.6667 56.5,36.6667 42.5,36C 41.2986,35.0975 40.4652,33.9308 40,32.5C 39.3333,26.8333 39.3333,21.1667 40,15.5C 40.6622,14.0161 41.4955,12.6828 42.5,11.5 Z"/></g>
<g><path style="opacity:1" fill="#9bcae3" d="M 12.5,13.5 C 17.6677,14.3385 18.6677,16.8385 15.5,21C 8.93366,20.8051 7.93366,18.3051 12.5,13.5 Z"/></g>
<g><path style="opacity:1" fill="#abdef7" d="M 28.5,13.5 C 30.4779,14.3171 31.4779,15.8171 31.5,18C 30.9106,20.633 29.244,21.7997 26.5,21.5C 23.4193,17.8219 24.086,15.1553 28.5,13.5 Z"/></g>
<g><path style="opacity:1" fill="#afe4fd" d="M 97.5,13.5 C 102.668,14.3385 103.668,16.8385 100.5,21C 95.9167,21.9337 94.4167,20.1004 96,15.5C 96.7172,14.9558 97.2172,14.2891 97.5,13.5 Z"/></g>
<g><path style="opacity:1" fill="#ade2fd" d="M 111.5,13.5 C 116.805,14.2414 118.139,16.7414 115.5,21C 109.403,21.1475 108.07,18.6475 111.5,13.5 Z"/></g>
<g><path style="opacity:1" fill="#fcfefe" d="M 77.5,33.5 C 77.0601,29.7485 75.3934,26.7485 72.5,24.5C 74.0376,22.4486 73.7043,20.782 71.5,19.5C 70.4777,19.8555 69.811,20.5222 69.5,21.5C 58.947,19.4366 52.2803,23.4366 49.5,33.5C 47.5328,33.7394 45.6995,33.4061 44,32.5C 43.3333,27.1667 43.3333,21.8333 44,16.5C 50.4226,15.8426 56.9226,15.5093 63.5,15.5C 70.0774,15.5093 76.5774,15.8426 83,16.5C 83.6667,21.8333 83.6667,27.1667 83,32.5C 81.3005,33.4061 79.4672,33.7394 77.5,33.5 Z"/></g>
<g><path style="opacity:1" fill="#55616a" d="M 72.5,24.5 C 70.2651,27.2911 68.2651,30.2911 66.5,33.5C 65.1667,33.5 63.8333,33.5 62.5,33.5C 64.8058,29.5172 67.1391,25.5172 69.5,21.5C 69.811,20.5222 70.4777,19.8555 71.5,19.5C 73.7043,20.782 74.0376,22.4486 72.5,24.5 Z"/></g>
<g><path style="opacity:1" fill="#83dad5" d="M 69.5,21.5 C 67.1391,25.5172 64.8058,29.5172 62.5,33.5C 58.1667,33.5 53.8333,33.5 49.5,33.5C 52.2803,23.4366 58.947,19.4366 69.5,21.5 Z"/></g>
<g><path style="opacity:1" fill="#85dad6" d="M 72.5,24.5 C 75.3934,26.7485 77.0601,29.7485 77.5,33.5C 73.8333,33.5 70.1667,33.5 66.5,33.5C 68.2651,30.2911 70.2651,27.2911 72.5,24.5 Z"/></g>
<g><path style="opacity:1" fill="#9dcce3" d="M 11.5,27.5 C 17.5548,26.9421 18.8881,29.1088 15.5,34C 9.73774,34.4178 8.4044,32.2511 11.5,27.5 Z"/></g>
<g><path style="opacity:1" fill="#acdff8" d="M 26.5,27.5 C 27.8734,27.3433 29.2068,27.51 30.5,28C 32.6609,32.4481 31.3276,34.6148 26.5,34.5C 25.0532,33.8658 24.3866,32.6991 24.5,31C 24.3866,29.3009 25.0532,28.1342 26.5,27.5 Z"/></g>
<g><path style="opacity:1" fill="#b0e4fe" d="M 96.5,27.5 C 101.895,26.5548 103.561,28.5548 101.5,33.5C 95.7402,35.2121 94.0736,33.2121 96.5,27.5 Z"/></g>
<g><path style="opacity:1" fill="#afe3fd" d="M 110.5,27.5 C 115.006,26.5272 117.172,28.1939 117,32.5C 113.507,35.5018 111.007,34.8351 109.5,30.5C 109.685,29.4163 110.018,28.4163 110.5,27.5 Z"/></g>
<g><path style="opacity:1" fill="#3a668e" d="M 29.5,46.5 C 35.7311,45.8531 40.8978,47.8531 45,52.5C 48.0821,58.446 49.2487,64.7794 48.5,71.5C 46.5861,75.1548 45.5861,79.1548 45.5,83.5C 46.2953,88.5493 47.2953,93.5493 48.5,98.5C 47.0787,95.9906 45.4121,93.6572 43.5,91.5C 42.8902,90.609 42.5569,89.609 42.5,88.5C 42.3518,80.7601 43.0184,73.0935 44.5,65.5C 45.2671,58.6273 42.6004,53.7939 36.5,51C 32.9439,50.7777 29.6105,49.9444 26.5,48.5C 27.5,47.8333 28.5,47.1667 29.5,46.5 Z"/></g>
<g><path style="opacity:1" fill="#3a668e" d="M 109.5,71.5 C 109.536,86.5908 104.203,99.4241 93.5,110C 87.6098,112.879 82.7765,111.712 79,106.5C 78.3333,102.5 78.3333,98.5 79,94.5C 82.4056,86.6375 82.2389,78.9708 78.5,71.5C 78.3345,67.4862 78.5012,63.4862 79,59.5C 82.7451,47.7087 90.2451,44.2087 101.5,49C 108.21,54.9588 110.877,62.4588 109.5,71.5 Z"/></g>
<g><path style="opacity:1" fill="#335b7f" d="M 26.5,48.5 C 29.6105,49.9444 32.9439,50.7777 36.5,51C 42.6004,53.7939 45.2671,58.6273 44.5,65.5C 43.0184,73.0935 42.3518,80.7601 42.5,88.5C 36.1715,76.8984 31.5048,64.5651 28.5,51.5C 24.9808,53.5198 22.8141,56.5198 22,60.5C 18.8948,76.4082 22.2282,90.7415 32,103.5C 36.1081,109.464 40.4414,109.797 45,104.5C 45.5778,100.044 45.0778,95.711 43.5,91.5C 45.4121,93.6572 47.0787,95.9906 48.5,98.5C 48.5,98.8333 48.5,99.1667 48.5,99.5C 48.2986,109.869 43.2986,113.369 33.5,110C 23.0035,99.3514 17.6702,86.5181 17.5,71.5C 16.0226,61.909 19.0226,54.2424 26.5,48.5 Z"/></g>
<g><path style="opacity:1" fill="#325a7e" d="M 89.5,50.5 C 98.1429,49.3138 103.31,52.9805 105,61.5C 108.317,79.0797 103.817,94.2464 91.5,107C 85.5707,109.043 82.2373,107.043 81.5,101C 83.1413,95.2414 84.4747,89.4081 85.5,83.5C 85.1402,79.7272 84.3068,76.0605 83,72.5C 82.3333,67.8333 82.3333,63.1667 83,58.5C 84.3046,55.0386 86.4713,52.372 89.5,50.5 Z"/></g>
<g><path style="opacity:1" fill="#2d5171" d="M 42.5,88.5 C 42.5569,89.609 42.8902,90.609 43.5,91.5C 45.0778,95.711 45.5778,100.044 45,104.5C 40.4414,109.797 36.1081,109.464 32,103.5C 22.2282,90.7415 18.8948,76.4082 22,60.5C 22.8141,56.5198 24.9808,53.5198 28.5,51.5C 31.5048,64.5651 36.1715,76.8984 42.5,88.5 Z"/></g>
<g><path style="opacity:1" fill="#9fcee4" d="M -0.5,71.5 C 5.5,71.5 11.5,71.5 17.5,71.5C 17.6702,86.5181 23.0035,99.3514 33.5,110C 43.2986,113.369 48.2986,109.869 48.5,99.5C 55.9189,109.587 64.9189,117.921 75.5,124.5C 57.1667,124.5 38.8333,124.5 20.5,124.5C 19.2124,111.879 12.2124,104.879 -0.5,103.5C -0.5,92.8333 -0.5,82.1667 -0.5,71.5 Z"/></g>
<g><path style="opacity:1" fill="#b1e5fe" d="M 48.5,71.5 C 58.5,71.5 68.5,71.5 78.5,71.5C 82.2389,78.9708 82.4056,86.6375 79,94.5C 78.3333,98.5 78.3333,102.5 79,106.5C 82.7765,111.712 87.6098,112.879 93.5,110C 104.203,99.4241 109.536,86.5908 109.5,71.5C 115.5,71.5 121.5,71.5 127.5,71.5C 127.5,82.1667 127.5,92.8333 127.5,103.5C 118.795,103.775 112.295,107.775 108,115.5C 106.851,118.393 106.351,121.393 106.5,124.5C 96.1667,124.5 85.8333,124.5 75.5,124.5C 64.9189,117.921 55.9189,109.587 48.5,99.5C 48.5,99.1667 48.5,98.8333 48.5,98.5C 47.2953,93.5493 46.2953,88.5493 45.5,83.5C 45.5861,79.1548 46.5861,75.1548 48.5,71.5 Z"/></g>
<g><path style="opacity:1" fill="#365e82" d="M -0.5,103.5 C 12.2124,104.879 19.2124,111.879 20.5,124.5C 11.226,126.312 4.22596,123.312 -0.5,115.5C -0.5,111.5 -0.5,107.5 -0.5,103.5 Z"/></g>
<g><path style="opacity:1" fill="#3c6991" d="M 127.5,103.5 C 127.5,107.5 127.5,111.5 127.5,115.5C 122.774,123.312 115.774,126.312 106.5,124.5C 106.351,121.393 106.851,118.393 108,115.5C 112.295,107.775 118.795,103.775 127.5,103.5 Z"/></g>
</svg>
